<?xml version="1.0" encoding="utf-8" standalone="no"?>
<!DOCTYPE svg PUBLIC "-//W3C//DTD SVG 1.1//EN"
  "http://www.w3.org/Graphics/SVG/1.1/DTD/svg11.dtd">
<svg height="345.6pt" version="1.1" viewBox="0 0 460.8 345.6" width="460.8pt" xmlns="http://www.w3.org/2000/svg" xmlns:xlink="http://www.w3.org/1999/xlink">
 <metadata>
  <rdf:RDF xmlns:cc="http://creativecommons.org/ns#" xmlns:dc="http://purl.org/dc/elements/1.1/" xmlns:rdf="http://www.w3.org/1999/02/22-rdf-syntax-ns#">
   <cc:Work>
    <dc:type rdf:resource="http://purl.org/dc/dcmitype/StillImage"/>
    <dc:date>2021-05-15T04:26:17.373323</dc:date>
    <dc:format>image/svg+xml</dc:format>
    <dc:creator>
     <cc:Agent>
      <dc:title>Matplotlib v3.4.1, https://matplotlib.org/</dc:title>
     </cc:Agent>
    </dc:creator>
   </cc:Work>
  </rdf:RDF>
 </metadata>
 <defs>
  <style type="text/css">*{stroke-linecap:butt;stroke-linejoin:round;}</style>
 </defs>
 <g id="figure_1">
  <g id="patch_1">
   <path d="M 0 345.6 
L 460.8 345.6 
L 460.8 0 
L 0 0 
z
" style="fill:#ffffff;"/>
  </g>
  <g id="axes_1">
   <g id="patch_2">
    <path d="M 57.6 307.584 
L 414.72 307.584 
L 414.72 41.472 
L 57.6 41.472 
z
" style="fill:#ffffff;"/>
   </g>
   <g id="patch_3">
    <path clip-path="url(#p0b421a5d37)" d="M 73.832727 307.584 
L 80.325818 307.584 
L 80.325818 307.584 
L 73.832727 307.584 
z
" style="fill:#1f77b4;fill-opacity:0.75;stroke:#000000;stroke-linejoin:miter;stroke-width:0.649309;"/>
   </g>
   <g id="patch_4">
    <path clip-path="url(#p0b421a5d37)" d="M 80.325818 307.584 
L 86.818909 307.584 
L 86.818909 307.584 
L 80.325818 307.584 
z
" style="fill:#1f77b4;fill-opacity:0.75;stroke:#000000;stroke-linejoin:miter;stroke-width:0.649309;"/>
   </g>
   <g id="patch_5">
    <path clip-path="url(#p0b421a5d37)" d="M 86.818909 307.584 
L 93.312 307.584 
L 93.312 307.584 
L 86.818909 307.584 
z
" style="fill:#1f77b4;fill-opacity:0.75;stroke:#000000;stroke-linejoin:miter;stroke-width:0.649309;"/>
   </g>
   <g id="patch_6">
    <path clip-path="url(#p0b421a5d37)" d="M 93.312 307.584 
L 99.805091 307.584 
L 99.805091 307.584 
L 93.312 307.584 
z
" style="fill:#1f77b4;fill-opacity:0.75;stroke:#000000;stroke-linejoin:miter;stroke-width:0.649309;"/>
   </g>
   <g id="patch_7">
    <path clip-path="url(#p0b421a5d37)" d="M 99.805091 307.584 
L 106.298182 307.584 
L 106.298182 307.584 
L 99.805091 307.584 
z
" style="fill:#1f77b4;fill-opacity:0.75;stroke:#000000;stroke-linejoin:miter;stroke-width:0.649309;"/>
   </g>
   <g id="patch_8">
    <path clip-path="url(#p0b421a5d37)" d="M 106.298182 307.584 
L 112.791273 307.584 
L 112.791273 307.584 
L 106.298182 307.584 
z
" style="fill:#1f77b4;fill-opacity:0.75;stroke:#000000;stroke-linejoin:miter;stroke-width:0.649309;"/>
   </g>
   <g id="patch_9">
    <path clip-path="url(#p0b421a5d37)" d="M 112.791273 307.584 
L 119.284364 307.584 
L 119.284364 307.584 
L 112.791273 307.584 
z
" style="fill:#1f77b4;fill-opacity:0.75;stroke:#000000;stroke-linejoin:miter;stroke-width:0.649309;"/>
   </g>
   <g id="patch_10">
    <path clip-path="url(#p0b421a5d37)" d="M 119.284364 307.584 
L 125.777455 307.584 
L 125.777455 307.584 
L 119.284364 307.584 
z
" style="fill:#1f77b4;fill-opacity:0.75;stroke:#000000;stroke-linejoin:miter;stroke-width:0.649309;"/>
   </g>
   <g id="patch_11">
    <path clip-path="url(#p0b421a5d37)" d="M 125.777455 307.584 
L 132.270545 307.584 
L 132.270545 307.584 
L 125.777455 307.584 
z
" style="fill:#1f77b4;fill-opacity:0.75;stroke:#000000;stroke-linejoin:miter;stroke-width:0.649309;"/>
   </g>
   <g id="patch_12">
    <path clip-path="url(#p0b421a5d37)" d="M 132.270545 307.584 
L 138.763636 307.584 
L 138.763636 307.584 
L 132.270545 307.584 
z
" style="fill:#1f77b4;fill-opacity:0.75;stroke:#000000;stroke-linejoin:miter;stroke-width:0.649309;"/>
   </g>
   <g id="patch_13">
    <path clip-path="url(#p0b421a5d37)" d="M 138.763636 307.584 
L 145.256727 307.584 
L 145.256727 307.584 
L 138.763636 307.584 
z
" style="fill:#1f77b4;fill-opacity:0.75;stroke:#000000;stroke-linejoin:miter;stroke-width:0.649309;"/>
   </g>
   <g id="patch_14">
    <path clip-path="url(#p0b421a5d37)" d="M 145.256727 307.584 
L 151.749818 307.584 
L 151.749818 307.584 
L 145.256727 307.584 
z
" style="fill:#1f77b4;fill-opacity:0.75;stroke:#000000;stroke-linejoin:miter;stroke-width:0.649309;"/>
   </g>
   <g id="patch_15">
    <path clip-path="url(#p0b421a5d37)" d="M 151.749818 307.584 
L 158.242909 307.584 
L 158.242909 307.584 
L 151.749818 307.584 
z
" style="fill:#1f77b4;fill-opacity:0.75;stroke:#000000;stroke-linejoin:miter;stroke-width:0.649309;"/>
   </g>
   <g id="patch_16">
    <path clip-path="url(#p0b421a5d37)" d="M 158.242909 307.584 
L 164.736 307.584 
L 164.736 307.584 
L 158.242909 307.584 
z
" style="fill:#1f77b4;fill-opacity:0.75;stroke:#000000;stroke-linejoin:miter;stroke-width:0.649309;"/>
   </g>
   <g id="patch_17">
    <path clip-path="url(#p0b421a5d37)" d="M 164.736 307.584 
L 171.229091 307.584 
L 171.229091 307.584 
L 164.736 307.584 
z
" style="fill:#1f77b4;fill-opacity:0.75;stroke:#000000;stroke-linejoin:miter;stroke-width:0.649309;"/>
   </g>
   <g id="patch_18">
    <path clip-path="url(#p0b421a5d37)" d="M 171.229091 307.584 
L 177.722182 307.584 
L 177.722182 307.584 
L 171.229091 307.584 
z
" style="fill:#1f77b4;fill-opacity:0.75;stroke:#000000;stroke-linejoin:miter;stroke-width:0.649309;"/>
   </g>
   <g id="patch_19">
    <path clip-path="url(#p0b421a5d37)" d="M 177.722182 307.584 
L 184.215273 307.584 
L 184.215273 307.584 
L 177.722182 307.584 
z
" style="fill:#1f77b4;fill-opacity:0.75;stroke:#000000;stroke-linejoin:miter;stroke-width:0.649309;"/>
   </g>
   <g id="patch_20">
    <path clip-path="url(#p0b421a5d37)" d="M 184.215273 307.584 
L 190.708364 307.584 
L 190.708364 307.584 
L 184.215273 307.584 
z
" style="fill:#1f77b4;fill-opacity:0.75;stroke:#000000;stroke-linejoin:miter;stroke-width:0.649309;"/>
   </g>
   <g id="patch_21">
    <path clip-path="url(#p0b421a5d37)" d="M 190.708364 307.584 
L 197.201455 307.584 
L 197.201455 307.584 
L 190.708364 307.584 
z
" style="fill:#1f77b4;fill-opacity:0.75;stroke:#000000;stroke-linejoin:miter;stroke-width:0.649309;"/>
   </g>
   <g id="patch_22">
    <path clip-path="url(#p0b421a5d37)" d="M 197.201455 307.584 
L 203.694545 307.584 
L 203.694545 307.584 
L 197.201455 307.584 
z
" style="fill:#1f77b4;fill-opacity:0.75;stroke:#000000;stroke-linejoin:miter;stroke-width:0.649309;"/>
   </g>
   <g id="patch_23">
    <path clip-path="url(#p0b421a5d37)" d="M 203.694545 307.584 
L 210.187636 307.584 
L 210.187636 307.584 
L 203.694545 307.584 
z
" style="fill:#1f77b4;fill-opacity:0.75;stroke:#000000;stroke-linejoin:miter;stroke-width:0.649309;"/>
   </g>
   <g id="patch_24">
    <path clip-path="url(#p0b421a5d37)" d="M 210.187636 307.584 
L 216.680727 307.584 
L 216.680727 307.584 
L 210.187636 307.584 
z
" style="fill:#1f77b4;fill-opacity:0.75;stroke:#000000;stroke-linejoin:miter;stroke-width:0.649309;"/>
   </g>
   <g id="patch_25">
    <path clip-path="url(#p0b421a5d37)" d="M 216.680727 307.584 
L 223.173818 307.584 
L 223.173818 307.584 
L 216.680727 307.584 
z
" style="fill:#1f77b4;fill-opacity:0.75;stroke:#000000;stroke-linejoin:miter;stroke-width:0.649309;"/>
   </g>
   <g id="patch_26">
    <path clip-path="url(#p0b421a5d37)" d="M 223.173818 307.584 
L 229.666909 307.584 
L 229.666909 307.584 
L 223.173818 307.584 
z
" style="fill:#1f77b4;fill-opacity:0.75;stroke:#000000;stroke-linejoin:miter;stroke-width:0.649309;"/>
   </g>
   <g id="patch_27">
    <path clip-path="url(#p0b421a5d37)" d="M 229.666909 307.584 
L 236.16 307.584 
L 236.16 307.584 
L 229.666909 307.584 
z
" style="fill:#1f77b4;fill-opacity:0.75;stroke:#000000;stroke-linejoin:miter;stroke-width:0.649309;"/>
   </g>
   <g id="patch_28">
    <path clip-path="url(#p0b421a5d37)" d="M 236.16 307.584 
L 242.653091 307.584 
L 242.653091 54.144 
L 236.16 54.144 
z
" style="fill:#1f77b4;fill-opacity:0.75;stroke:#000000;stroke-linejoin:miter;stroke-width:0.649309;"/>
   </g>
   <g id="patch_29">
    <path clip-path="url(#p0b421a5d37)" d="M 242.653091 307.584 
L 249.146182 307.584 
L 249.146182 288.675097 
L 242.653091 288.675097 
z
" style="fill:#1f77b4;fill-opacity:0.75;stroke:#000000;stroke-linejoin:miter;stroke-width:0.649309;"/>
   </g>
   <g id="patch_30">
    <path clip-path="url(#p0b421a5d37)" d="M 249.146182 307.584 
L 255.639273 307.584 
L 255.639273 296.768402 
L 249.146182 296.768402 
z
" style="fill:#1f77b4;fill-opacity:0.75;stroke:#000000;stroke-linejoin:miter;stroke-width:0.649309;"/>
   </g>
   <g id="patch_31">
    <path clip-path="url(#p0b421a5d37)" d="M 255.639273 307.584 
L 262.132364 307.584 
L 262.132364 289.177863 
L 255.639273 289.177863 
z
" style="fill:#1f77b4;fill-opacity:0.75;stroke:#000000;stroke-linejoin:miter;stroke-width:0.649309;"/>
   </g>
   <g id="patch_32">
    <path clip-path="url(#p0b421a5d37)" d="M 262.132364 307.584 
L 268.625455 307.584 
L 268.625455 293.298091 
L 262.132364 293.298091 
z
" style="fill:#1f77b4;fill-opacity:0.75;stroke:#000000;stroke-linejoin:miter;stroke-width:0.649309;"/>
   </g>
   <g id="patch_33">
    <path clip-path="url(#p0b421a5d37)" d="M 268.625455 307.584 
L 275.118545 307.584 
L 275.118545 298.632314 
L 268.625455 298.632314 
z
" style="fill:#1f77b4;fill-opacity:0.75;stroke:#000000;stroke-linejoin:miter;stroke-width:0.649309;"/>
   </g>
   <g id="patch_34">
    <path clip-path="url(#p0b421a5d37)" d="M 275.118545 307.584 
L 281.611636 307.584 
L 281.611636 303.006991 
L 275.118545 303.006991 
z
" style="fill:#1f77b4;fill-opacity:0.75;stroke:#000000;stroke-linejoin:miter;stroke-width:0.649309;"/>
   </g>
   <g id="patch_35">
    <path clip-path="url(#p0b421a5d37)" d="M 281.611636 307.584 
L 288.104727 307.584 
L 288.104727 305.723153 
L 281.611636 305.723153 
z
" style="fill:#1f77b4;fill-opacity:0.75;stroke:#000000;stroke-linejoin:miter;stroke-width:0.649309;"/>
   </g>
   <g id="patch_36">
    <path clip-path="url(#p0b421a5d37)" d="M 288.104727 307.584 
L 294.597818 307.584 
L 294.597818 305.431917 
L 288.104727 305.431917 
z
" style="fill:#1f77b4;fill-opacity:0.75;stroke:#000000;stroke-linejoin:miter;stroke-width:0.649309;"/>
   </g>
   <g id="patch_37">
    <path clip-path="url(#p0b421a5d37)" d="M 294.597818 307.584 
L 301.090909 307.584 
L 301.090909 301.146144 
L 294.597818 301.146144 
z
" style="fill:#1f77b4;fill-opacity:0.75;stroke:#000000;stroke-linejoin:miter;stroke-width:0.649309;"/>
   </g>
   <g id="patch_38">
    <path clip-path="url(#p0b421a5d37)" d="M 301.090909 307.584 
L 307.584 307.584 
L 307.584 305.208125 
L 301.090909 305.208125 
z
" style="fill:#1f77b4;fill-opacity:0.75;stroke:#000000;stroke-linejoin:miter;stroke-width:0.649309;"/>
   </g>
   <g id="patch_39">
    <path clip-path="url(#p0b421a5d37)" d="M 307.584 307.584 
L 314.077091 307.584 
L 314.077091 306.584599 
L 307.584 306.584599 
z
" style="fill:#1f77b4;fill-opacity:0.75;stroke:#000000;stroke-linejoin:miter;stroke-width:0.649309;"/>
   </g>
   <g id="patch_40">
    <path clip-path="url(#p0b421a5d37)" d="M 314.077091 307.584 
L 320.570182 307.584 
L 320.570182 306.504893 
L 314.077091 306.504893 
z
" style="fill:#1f77b4;fill-opacity:0.75;stroke:#000000;stroke-linejoin:miter;stroke-width:0.649309;"/>
   </g>
   <g id="patch_41">
    <path clip-path="url(#p0b421a5d37)" d="M 320.570182 307.584 
L 327.063273 307.584 
L 327.063273 303.040713 
L 320.570182 303.040713 
z
" style="fill:#1f77b4;fill-opacity:0.75;stroke:#000000;stroke-linejoin:miter;stroke-width:0.649309;"/>
   </g>
   <g id="patch_42">
    <path clip-path="url(#p0b421a5d37)" d="M 327.063273 307.584 
L 333.556364 307.584 
L 333.556364 304.785065 
L 327.063273 304.785065 
z
" style="fill:#1f77b4;fill-opacity:0.75;stroke:#000000;stroke-linejoin:miter;stroke-width:0.649309;"/>
   </g>
   <g id="patch_43">
    <path clip-path="url(#p0b421a5d37)" d="M 333.556364 307.584 
L 340.049455 307.584 
L 340.049455 307.065906 
L 333.556364 307.065906 
z
" style="fill:#1f77b4;fill-opacity:0.75;stroke:#000000;stroke-linejoin:miter;stroke-width:0.649309;"/>
   </g>
   <g id="patch_44">
    <path clip-path="url(#p0b421a5d37)" d="M 340.049455 307.584 
L 346.542545 307.584 
L 346.542545 307.078168 
L 340.049455 307.078168 
z
" style="fill:#1f77b4;fill-opacity:0.75;stroke:#000000;stroke-linejoin:miter;stroke-width:0.649309;"/>
   </g>
   <g id="patch_45">
    <path clip-path="url(#p0b421a5d37)" d="M 346.542545 307.584 
L 353.035636 307.584 
L 353.035636 307.369405 
L 346.542545 307.369405 
z
" style="fill:#1f77b4;fill-opacity:0.75;stroke:#000000;stroke-linejoin:miter;stroke-width:0.649309;"/>
   </g>
   <g id="patch_46">
    <path clip-path="url(#p0b421a5d37)" d="M 353.035636 307.584 
L 359.528727 307.584 
L 359.528727 307.470571 
L 353.035636 307.470571 
z
" style="fill:#1f77b4;fill-opacity:0.75;stroke:#000000;stroke-linejoin:miter;stroke-width:0.649309;"/>
   </g>
   <g id="patch_47">
    <path clip-path="url(#p0b421a5d37)" d="M 359.528727 307.584 
L 366.021818 307.584 
L 366.021818 307.360208 
L 359.528727 307.360208 
z
" style="fill:#1f77b4;fill-opacity:0.75;stroke:#000000;stroke-linejoin:miter;stroke-width:0.649309;"/>
   </g>
   <g id="patch_48">
    <path clip-path="url(#p0b421a5d37)" d="M 366.021818 307.584 
L 372.514909 307.584 
L 372.514909 307.234516 
L 366.021818 307.234516 
z
" style="fill:#1f77b4;fill-opacity:0.75;stroke:#000000;stroke-linejoin:miter;stroke-width:0.649309;"/>
   </g>
   <g id="patch_49">
    <path clip-path="url(#p0b421a5d37)" d="M 372.514909 307.584 
L 379.008 307.584 
L 379.008 307.15481 
L 372.514909 307.15481 
z
" style="fill:#1f77b4;fill-opacity:0.75;stroke:#000000;stroke-linejoin:miter;stroke-width:0.649309;"/>
   </g>
   <g id="patch_50">
    <path clip-path="url(#p0b421a5d37)" d="M 379.008 307.584 
L 385.501091 307.584 
L 385.501091 307.075103 
L 379.008 307.075103 
z
" style="fill:#1f77b4;fill-opacity:0.75;stroke:#000000;stroke-linejoin:miter;stroke-width:0.649309;"/>
   </g>
   <g id="patch_51">
    <path clip-path="url(#p0b421a5d37)" d="M 385.501091 307.584 
L 391.994182 307.584 
L 391.994182 307.072037 
L 385.501091 307.072037 
z
" style="fill:#1f77b4;fill-opacity:0.75;stroke:#000000;stroke-linejoin:miter;stroke-width:0.649309;"/>
   </g>
   <g id="patch_52">
    <path clip-path="url(#p0b421a5d37)" d="M 391.994182 307.584 
L 398.487273 307.584 
L 398.487273 307.157875 
L 391.994182 307.157875 
z
" style="fill:#1f77b4;fill-opacity:0.75;stroke:#000000;stroke-linejoin:miter;stroke-width:0.649309;"/>
   </g>
   <g id="patch_53">
    <path clip-path="url(#p0b421a5d37)" d="M 73.832727 307.584 
L 80.325818 307.584 
L 80.325818 307.584 
L 73.832727 307.584 
z
" style="fill:#1f77b4;fill-opacity:0.75;stroke:#000000;stroke-linejoin:miter;stroke-width:0.649309;"/>
   </g>
   <g id="patch_54">
    <path clip-path="url(#p0b421a5d37)" d="M 80.325818 307.584 
L 86.818909 307.584 
L 86.818909 307.584 
L 80.325818 307.584 
z
" style="fill:#1f77b4;fill-opacity:0.75;stroke:#000000;stroke-linejoin:miter;stroke-width:0.649309;"/>
   </g>
   <g id="patch_55">
    <path clip-path="url(#p0b421a5d37)" d="M 86.818909 307.584 
L 93.312 307.584 
L 93.312 307.584 
L 86.818909 307.584 
z
" style="fill:#1f77b4;fill-opacity:0.75;stroke:#000000;stroke-linejoin:miter;stroke-width:0.649309;"/>
   </g>
   <g id="patch_56">
    <path clip-path="url(#p0b421a5d37)" d="M 93.312 307.584 
L 99.805091 307.584 
L 99.805091 307.584 
L 93.312 307.584 
z
" style="fill:#1f77b4;fill-opacity:0.75;stroke:#000000;stroke-linejoin:miter;stroke-width:0.649309;"/>
   </g>
   <g id="patch_57">
    <path clip-path="url(#p0b421a5d37)" d="M 99.805091 307.584 
L 106.298182 307.584 
L 106.298182 307.584 
L 99.805091 307.584 
z
" style="fill:#1f77b4;fill-opacity:0.75;stroke:#000000;stroke-linejoin:miter;stroke-width:0.649309;"/>
   </g>
   <g id="patch_58">
    <path clip-path="url(#p0b421a5d37)" d="M 106.298182 307.584 
L 112.791273 307.584 
L 112.791273 307.584 
L 106.298182 307.584 
z
" style="fill:#1f77b4;fill-opacity:0.75;stroke:#000000;stroke-linejoin:miter;stroke-width:0.649309;"/>
   </g>
   <g id="patch_59">
    <path clip-path="url(#p0b421a5d37)" d="M 112.791273 307.584 
L 119.284364 307.584 
L 119.284364 307.584 
L 112.791273 307.584 
z
" style="fill:#1f77b4;fill-opacity:0.75;stroke:#000000;stroke-linejoin:miter;stroke-width:0.649309;"/>
   </g>
   <g id="patch_60">
    <path clip-path="url(#p0b421a5d37)" d="M 119.284364 307.584 
L 125.777455 307.584 
L 125.777455 307.584 
L 119.284364 307.584 
z
" style="fill:#1f77b4;fill-opacity:0.75;stroke:#000000;stroke-linejoin:miter;stroke-width:0.649309;"/>
   </g>
   <g id="patch_61">
    <path clip-path="url(#p0b421a5d37)" d="M 125.777455 307.584 
L 132.270545 307.584 
L 132.270545 307.584 
L 125.777455 307.584 
z
" style="fill:#1f77b4;fill-opacity:0.75;stroke:#000000;stroke-linejoin:miter;stroke-width:0.649309;"/>
   </g>
   <g id="patch_62">
    <path clip-path="url(#p0b421a5d37)" d="M 132.270545 307.584 
L 138.763636 307.584 
L 138.763636 307.584 
L 132.270545 307.584 
z
" style="fill:#1f77b4;fill-opacity:0.75;stroke:#000000;stroke-linejoin:miter;stroke-width:0.649309;"/>
   </g>
   <g id="patch_63">
    <path clip-path="url(#p0b421a5d37)" d="M 138.763636 307.584 
L 145.256727 307.584 
L 145.256727 307.584 
L 138.763636 307.584 
z
" style="fill:#1f77b4;fill-opacity:0.75;stroke:#000000;stroke-linejoin:miter;stroke-width:0.649309;"/>
   </g>
   <g id="patch_64">
    <path clip-path="url(#p0b421a5d37)" d="M 145.256727 307.584 
L 151.749818 307.584 
L 151.749818 307.584 
L 145.256727 307.584 
z
" style="fill:#1f77b4;fill-opacity:0.75;stroke:#000000;stroke-linejoin:miter;stroke-width:0.649309;"/>
   </g>
   <g id="patch_65">
    <path clip-path="url(#p0b421a5d37)" d="M 151.749818 307.584 
L 158.242909 307.584 
L 158.242909 307.584 
L 151.749818 307.584 
z
" style="fill:#1f77b4;fill-opacity:0.75;stroke:#000000;stroke-linejoin:miter;stroke-width:0.649309;"/>
   </g>
   <g id="patch_66">
    <path clip-path="url(#p0b421a5d37)" d="M 158.242909 307.584 
L 164.736 307.584 
L 164.736 307.584 
L 158.242909 307.584 
z
" style="fill:#1f77b4;fill-opacity:0.75;stroke:#000000;stroke-linejoin:miter;stroke-width:0.649309;"/>
   </g>
   <g id="patch_67">
    <path clip-path="url(#p0b421a5d37)" d="M 164.736 307.584 
L 171.229091 307.584 
L 171.229091 307.584 
L 164.736 307.584 
z
" style="fill:#1f77b4;fill-opacity:0.75;stroke:#000000;stroke-linejoin:miter;stroke-width:0.649309;"/>
   </g>
   <g id="patch_68">
    <path clip-path="url(#p0b421a5d37)" d="M 171.229091 307.584 
L 177.722182 307.584 
L 177.722182 307.584 
L 171.229091 307.584 
z
" style="fill:#1f77b4;fill-opacity:0.75;stroke:#000000;stroke-linejoin:miter;stroke-width:0.649309;"/>
   </g>
   <g id="patch_69">
    <path clip-path="url(#p0b421a5d37)" d="M 177.722182 307.584 
L 184.215273 307.584 
L 184.215273 307.584 
L 177.722182 307.584 
z
" style="fill:#1f77b4;fill-opacity:0.75;stroke:#000000;stroke-linejoin:miter;stroke-width:0.649309;"/>
   </g>
   <g id="patch_70">
    <path clip-path="url(#p0b421a5d37)" d="M 184.215273 307.584 
L 190.708364 307.584 
L 190.708364 307.584 
L 184.215273 307.584 
z
" style="fill:#1f77b4;fill-opacity:0.75;stroke:#000000;stroke-linejoin:miter;stroke-width:0.649309;"/>
   </g>
   <g id="patch_71">
    <path clip-path="url(#p0b421a5d37)" d="M 190.708364 307.584 
L 197.201455 307.584 
L 197.201455 307.584 
L 190.708364 307.584 
z
" style="fill:#1f77b4;fill-opacity:0.75;stroke:#000000;stroke-linejoin:miter;stroke-width:0.649309;"/>
   </g>
   <g id="patch_72">
    <path clip-path="url(#p0b421a5d37)" d="M 197.201455 307.584 
L 203.694545 307.584 
L 203.694545 307.584 
L 197.201455 307.584 
z
" style="fill:#1f77b4;fill-opacity:0.75;stroke:#000000;stroke-linejoin:miter;stroke-width:0.649309;"/>
   </g>
   <g id="patch_73">
    <path clip-path="url(#p0b421a5d37)" d="M 203.694545 307.584 
L 210.187636 307.584 
L 210.187636 307.584 
L 203.694545 307.584 
z
" style="fill:#1f77b4;fill-opacity:0.75;stroke:#000000;stroke-linejoin:miter;stroke-width:0.649309;"/>
   </g>
   <g id="patch_74">
    <path clip-path="url(#p0b421a5d37)" d="M 210.187636 307.584 
L 216.680727 307.584 
L 216.680727 307.584 
L 210.187636 307.584 
z
" style="fill:#1f77b4;fill-opacity:0.75;stroke:#000000;stroke-linejoin:miter;stroke-width:0.649309;"/>
   </g>
   <g id="patch_75">
    <path clip-path="url(#p0b421a5d37)" d="M 216.680727 307.584 
L 223.173818 307.584 
L 223.173818 307.584 
L 216.680727 307.584 
z
" style="fill:#1f77b4;fill-opacity:0.75;stroke:#000000;stroke-linejoin:miter;stroke-width:0.649309;"/>
   </g>
   <g id="patch_76">
    <path clip-path="url(#p0b421a5d37)" d="M 223.173818 307.584 
L 229.666909 307.584 
L 229.666909 307.584 
L 223.173818 307.584 
z
" style="fill:#1f77b4;fill-opacity:0.75;stroke:#000000;stroke-linejoin:miter;stroke-width:0.649309;"/>
   </g>
   <g id="patch_77">
    <path clip-path="url(#p0b421a5d37)" d="M 229.666909 307.584 
L 236.16 307.584 
L 236.16 307.584 
L 229.666909 307.584 
z
" style="fill:#1f77b4;fill-opacity:0.75;stroke:#000000;stroke-linejoin:miter;stroke-width:0.649309;"/>
   </g>
   <g id="patch_78">
    <path clip-path="url(#p0b421a5d37)" d="M 236.16 307.584 
L 242.653091 307.584 
L 242.653091 104.47516 
L 236.16 104.47516 
z
" style="fill:#1f77b4;fill-opacity:0.75;stroke:#000000;stroke-linejoin:miter;stroke-width:0.649309;"/>
   </g>
   <g id="patch_79">
    <path clip-path="url(#p0b421a5d37)" d="M 242.653091 307.584 
L 249.146182 307.584 
L 249.146182 272.671853 
L 242.653091 272.671853 
z
" style="fill:#1f77b4;fill-opacity:0.75;stroke:#000000;stroke-linejoin:miter;stroke-width:0.649309;"/>
   </g>
   <g id="patch_80">
    <path clip-path="url(#p0b421a5d37)" d="M 249.146182 307.584 
L 255.639273 307.584 
L 255.639273 301.697616 
L 249.146182 301.697616 
z
" style="fill:#1f77b4;fill-opacity:0.75;stroke:#000000;stroke-linejoin:miter;stroke-width:0.649309;"/>
   </g>
   <g id="patch_81">
    <path clip-path="url(#p0b421a5d37)" d="M 255.639273 307.584 
L 262.132364 307.584 
L 262.132364 296.815179 
L 255.639273 296.815179 
z
" style="fill:#1f77b4;fill-opacity:0.75;stroke:#000000;stroke-linejoin:miter;stroke-width:0.649309;"/>
   </g>
   <g id="patch_82">
    <path clip-path="url(#p0b421a5d37)" d="M 262.132364 307.584 
L 268.625455 307.584 
L 268.625455 295.513767 
L 262.132364 295.513767 
z
" style="fill:#1f77b4;fill-opacity:0.75;stroke:#000000;stroke-linejoin:miter;stroke-width:0.649309;"/>
   </g>
   <g id="patch_83">
    <path clip-path="url(#p0b421a5d37)" d="M 268.625455 307.584 
L 275.118545 307.584 
L 275.118545 294.7272 
L 268.625455 294.7272 
z
" style="fill:#1f77b4;fill-opacity:0.75;stroke:#000000;stroke-linejoin:miter;stroke-width:0.649309;"/>
   </g>
   <g id="patch_84">
    <path clip-path="url(#p0b421a5d37)" d="M 275.118545 307.584 
L 281.611636 307.584 
L 281.611636 303.061953 
L 275.118545 303.061953 
z
" style="fill:#1f77b4;fill-opacity:0.75;stroke:#000000;stroke-linejoin:miter;stroke-width:0.649309;"/>
   </g>
   <g id="patch_85">
    <path clip-path="url(#p0b421a5d37)" d="M 281.611636 307.584 
L 288.104727 307.584 
L 288.104727 304.818143 
L 281.611636 304.818143 
z
" style="fill:#1f77b4;fill-opacity:0.75;stroke:#000000;stroke-linejoin:miter;stroke-width:0.649309;"/>
   </g>
   <g id="patch_86">
    <path clip-path="url(#p0b421a5d37)" d="M 288.104727 307.584 
L 294.597818 307.584 
L 294.597818 303.934328 
L 288.104727 303.934328 
z
" style="fill:#1f77b4;fill-opacity:0.75;stroke:#000000;stroke-linejoin:miter;stroke-width:0.649309;"/>
   </g>
   <g id="patch_87">
    <path clip-path="url(#p0b421a5d37)" d="M 294.597818 307.584 
L 301.090909 307.584 
L 301.090909 301.689036 
L 294.597818 301.689036 
z
" style="fill:#1f77b4;fill-opacity:0.75;stroke:#000000;stroke-linejoin:miter;stroke-width:0.649309;"/>
   </g>
   <g id="patch_88">
    <path clip-path="url(#p0b421a5d37)" d="M 301.090909 307.584 
L 307.584 307.584 
L 307.584 302.241063 
L 301.090909 302.241063 
z
" style="fill:#1f77b4;fill-opacity:0.75;stroke:#000000;stroke-linejoin:miter;stroke-width:0.649309;"/>
   </g>
   <g id="patch_89">
    <path clip-path="url(#p0b421a5d37)" d="M 307.584 307.584 
L 314.077091 307.584 
L 314.077091 302.415538 
L 307.584 302.415538 
z
" style="fill:#1f77b4;fill-opacity:0.75;stroke:#000000;stroke-linejoin:miter;stroke-width:0.649309;"/>
   </g>
   <g id="patch_90">
    <path clip-path="url(#p0b421a5d37)" d="M 314.077091 307.584 
L 320.570182 307.584 
L 320.570182 301.614669 
L 314.077091 301.614669 
z
" style="fill:#1f77b4;fill-opacity:0.75;stroke:#000000;stroke-linejoin:miter;stroke-width:0.649309;"/>
   </g>
   <g id="patch_91">
    <path clip-path="url(#p0b421a5d37)" d="M 320.570182 307.584 
L 327.063273 307.584 
L 327.063273 302.235342 
L 320.570182 302.235342 
z
" style="fill:#1f77b4;fill-opacity:0.75;stroke:#000000;stroke-linejoin:miter;stroke-width:0.649309;"/>
   </g>
   <g id="patch_92">
    <path clip-path="url(#p0b421a5d37)" d="M 327.063273 307.584 
L 333.556364 307.584 
L 333.556364 302.358333 
L 327.063273 302.358333 
z
" style="fill:#1f77b4;fill-opacity:0.75;stroke:#000000;stroke-linejoin:miter;stroke-width:0.649309;"/>
   </g>
   <g id="patch_93">
    <path clip-path="url(#p0b421a5d37)" d="M 333.556364 307.584 
L 340.049455 307.584 
L 340.049455 300.310398 
L 333.556364 300.310398 
z
" style="fill:#1f77b4;fill-opacity:0.75;stroke:#000000;stroke-linejoin:miter;stroke-width:0.649309;"/>
   </g>
   <g id="patch_94">
    <path clip-path="url(#p0b421a5d37)" d="M 340.049455 307.584 
L 346.542545 307.584 
L 346.542545 303.705508 
L 340.049455 303.705508 
z
" style="fill:#1f77b4;fill-opacity:0.75;stroke:#000000;stroke-linejoin:miter;stroke-width:0.649309;"/>
   </g>
   <g id="patch_95">
    <path clip-path="url(#p0b421a5d37)" d="M 346.542545 307.584 
L 353.035636 307.584 
L 353.035636 304.145986 
L 346.542545 304.145986 
z
" style="fill:#1f77b4;fill-opacity:0.75;stroke:#000000;stroke-linejoin:miter;stroke-width:0.649309;"/>
   </g>
   <g id="patch_96">
    <path clip-path="url(#p0b421a5d37)" d="M 353.035636 307.584 
L 359.528727 307.584 
L 359.528727 303.622561 
L 353.035636 303.622561 
z
" style="fill:#1f77b4;fill-opacity:0.75;stroke:#000000;stroke-linejoin:miter;stroke-width:0.649309;"/>
   </g>
   <g id="patch_97">
    <path clip-path="url(#p0b421a5d37)" d="M 359.528727 307.584 
L 366.021818 307.584 
L 366.021818 304.108803 
L 359.528727 304.108803 
z
" style="fill:#1f77b4;fill-opacity:0.75;stroke:#000000;stroke-linejoin:miter;stroke-width:0.649309;"/>
   </g>
   <g id="patch_98">
    <path clip-path="url(#p0b421a5d37)" d="M 366.021818 307.584 
L 372.514909 307.584 
L 372.514909 303.73125 
L 366.021818 303.73125 
z
" style="fill:#1f77b4;fill-opacity:0.75;stroke:#000000;stroke-linejoin:miter;stroke-width:0.649309;"/>
   </g>
   <g id="patch_99">
    <path clip-path="url(#p0b421a5d37)" d="M 372.514909 307.584 
L 379.008 307.584 
L 379.008 305.252901 
L 372.514909 305.252901 
z
" style="fill:#1f77b4;fill-opacity:0.75;stroke:#000000;stroke-linejoin:miter;stroke-width:0.649309;"/>
   </g>
   <g id="patch_100">
    <path clip-path="url(#p0b421a5d37)" d="M 379.008 307.584 
L 385.501091 307.584 
L 385.501091 306.211083 
L 379.008 306.211083 
z
" style="fill:#1f77b4;fill-opacity:0.75;stroke:#000000;stroke-linejoin:miter;stroke-width:0.649309;"/>
   </g>
   <g id="patch_101">
    <path clip-path="url(#p0b421a5d37)" d="M 385.501091 307.584 
L 391.994182 307.584 
L 391.994182 306.465644 
L 385.501091 306.465644 
z
" style="fill:#1f77b4;fill-opacity:0.75;stroke:#000000;stroke-linejoin:miter;stroke-width:0.649309;"/>
   </g>
   <g id="patch_102">
    <path clip-path="url(#p0b421a5d37)" d="M 391.994182 307.584 
L 398.487273 307.584 
L 398.487273 306.342654 
L 391.994182 306.342654 
z
" style="fill:#1f77b4;fill-opacity:0.75;stroke:#000000;stroke-linejoin:miter;stroke-width:0.649309;"/>
   </g>
   <g id="matplotlib.axis_1">
    <g id="xtick_1">
     <g id="line2d_1">
      <defs>
       <path d="M 0 0 
L 0 3.5 
" id="m59f6227584" style="stroke:#000000;stroke-width:0.8;"/>
      </defs>
      <g>
       <use style="stroke:#000000;stroke-width:0.8;" x="106.298182" xlink:href="#m59f6227584" y="307.584"/>
      </g>
     </g>
     <g id="text_1">
      <!-- −20 -->
      <g transform="translate(95.745838 322.182437)scale(0.1 -0.1)">
       <defs>
        <path d="M 678 2272 
L 4684 2272 
L 4684 1741 
L 678 1741 
L 678 2272 
z
" id="DejaVuSans-2212" transform="scale(0.015625)"/>
        <path d="M 1228 531 
L 3431 531 
L 3431 0 
L 469 0 
L 469 531 
Q 828 903 1448 1529 
Q 2069 2156 2228 2338 
Q 2531 2678 2651 2914 
Q 2772 3150 2772 3378 
Q 2772 3750 2511 3984 
Q 2250 4219 1831 4219 
Q 1534 4219 1204 4116 
Q 875 4013 500 3803 
L 500 4441 
Q 881 4594 1212 4672 
Q 1544 4750 1819 4750 
Q 2544 4750 2975 4387 
Q 3406 4025 3406 3419 
Q 3406 3131 3298 2873 
Q 3191 2616 2906 2266 
Q 2828 2175 2409 1742 
Q 1991 1309 1228 531 
z
" id="DejaVuSans-32" transform="scale(0.015625)"/>
        <path d="M 2034 4250 
Q 1547 4250 1301 3770 
Q 1056 3291 1056 2328 
Q 1056 1369 1301 889 
Q 1547 409 2034 409 
Q 2525 409 2770 889 
Q 3016 1369 3016 2328 
Q 3016 3291 2770 3770 
Q 2525 4250 2034 4250 
z
M 2034 4750 
Q 2819 4750 3233 4129 
Q 3647 3509 3647 2328 
Q 3647 1150 3233 529 
Q 2819 -91 2034 -91 
Q 1250 -91 836 529 
Q 422 1150 422 2328 
Q 422 3509 836 4129 
Q 1250 4750 2034 4750 
z
" id="DejaVuSans-30" transform="scale(0.015625)"/>
       </defs>
       <use xlink:href="#DejaVuSans-2212"/>
       <use x="83.789062" xlink:href="#DejaVuSans-32"/>
       <use x="147.412109" xlink:href="#DejaVuSans-30"/>
      </g>
     </g>
    </g>
    <g id="xtick_2">
     <g id="line2d_2">
      <g>
       <use style="stroke:#000000;stroke-width:0.8;" x="171.229091" xlink:href="#m59f6227584" y="307.584"/>
      </g>
     </g>
     <g id="text_2">
      <!-- −10 -->
      <g transform="translate(160.676747 322.182437)scale(0.1 -0.1)">
       <defs>
        <path d="M 794 531 
L 1825 531 
L 1825 4091 
L 703 3866 
L 703 4441 
L 1819 4666 
L 2450 4666 
L 2450 531 
L 3481 531 
L 3481 0 
L 794 0 
L 794 531 
z
" id="DejaVuSans-31" transform="scale(0.015625)"/>
       </defs>
       <use xlink:href="#DejaVuSans-2212"/>
       <use x="83.789062" xlink:href="#DejaVuSans-31"/>
       <use x="147.412109" xlink:href="#DejaVuSans-30"/>
      </g>
     </g>
    </g>
    <g id="xtick_3">
     <g id="line2d_3">
      <g>
       <use style="stroke:#000000;stroke-width:0.8;" x="236.16" xlink:href="#m59f6227584" y="307.584"/>
      </g>
     </g>
     <g id="text_3">
      <!-- 0 -->
      <g transform="translate(232.97875 322.182437)scale(0.1 -0.1)">
       <use xlink:href="#DejaVuSans-30"/>
      </g>
     </g>
    </g>
    <g id="xtick_4">
     <g id="line2d_4">
      <g>
       <use style="stroke:#000000;stroke-width:0.8;" x="301.090909" xlink:href="#m59f6227584" y="307.584"/>
      </g>
     </g>
     <g id="text_4">
      <!-- 10 -->
      <g transform="translate(294.728409 322.182437)scale(0.1 -0.1)">
       <use xlink:href="#DejaVuSans-31"/>
       <use x="63.623047" xlink:href="#DejaVuSans-30"/>
      </g>
     </g>
    </g>
    <g id="xtick_5">
     <g id="line2d_5">
      <g>
       <use style="stroke:#000000;stroke-width:0.8;" x="366.021818" xlink:href="#m59f6227584" y="307.584"/>
      </g>
     </g>
     <g id="text_5">
      <!-- 20 -->
      <g transform="translate(359.659318 322.182437)scale(0.1 -0.1)">
       <use xlink:href="#DejaVuSans-32"/>
       <use x="63.623047" xlink:href="#DejaVuSans-30"/>
      </g>
     </g>
    </g>
   </g>
   <g id="matplotlib.axis_2">
    <g id="ytick_1">
     <g id="line2d_6">
      <defs>
       <path d="M 0 0 
L -3.5 0 
" id="m4e9714a876" style="stroke:#000000;stroke-width:0.8;"/>
      </defs>
      <g>
       <use style="stroke:#000000;stroke-width:0.8;" x="57.6" xlink:href="#m4e9714a876" y="307.584"/>
      </g>
     </g>
     <g id="text_6">
      <!-- 0.0 -->
      <g transform="translate(34.696875 311.383219)scale(0.1 -0.1)">
       <defs>
        <path d="M 684 794 
L 1344 794 
L 1344 0 
L 684 0 
L 684 794 
z
" id="DejaVuSans-2e" transform="scale(0.015625)"/>
       </defs>
       <use xlink:href="#DejaVuSans-30"/>
       <use x="63.623047" xlink:href="#DejaVuSans-2e"/>
       <use x="95.410156" xlink:href="#DejaVuSans-30"/>
      </g>
     </g>
    </g>
    <g id="ytick_2">
     <g id="line2d_7">
      <g>
       <use style="stroke:#000000;stroke-width:0.8;" x="57.6" xlink:href="#m4e9714a876" y="272.040597"/>
      </g>
     </g>
     <g id="text_7">
      <!-- 0.1 -->
      <g transform="translate(34.696875 275.839815)scale(0.1 -0.1)">
       <use xlink:href="#DejaVuSans-30"/>
       <use x="63.623047" xlink:href="#DejaVuSans-2e"/>
       <use x="95.410156" xlink:href="#DejaVuSans-31"/>
      </g>
     </g>
    </g>
    <g id="ytick_3">
     <g id="line2d_8">
      <g>
       <use style="stroke:#000000;stroke-width:0.8;" x="57.6" xlink:href="#m4e9714a876" y="236.497193"/>
      </g>
     </g>
     <g id="text_8">
      <!-- 0.2 -->
      <g transform="translate(34.696875 240.296412)scale(0.1 -0.1)">
       <use xlink:href="#DejaVuSans-30"/>
       <use x="63.623047" xlink:href="#DejaVuSans-2e"/>
       <use x="95.410156" xlink:href="#DejaVuSans-32"/>
      </g>
     </g>
    </g>
    <g id="ytick_4">
     <g id="line2d_9">
      <g>
       <use style="stroke:#000000;stroke-width:0.8;" x="57.6" xlink:href="#m4e9714a876" y="200.95379"/>
      </g>
     </g>
     <g id="text_9">
      <!-- 0.3 -->
      <g transform="translate(34.696875 204.753008)scale(0.1 -0.1)">
       <defs>
        <path d="M 2597 2516 
Q 3050 2419 3304 2112 
Q 3559 1806 3559 1356 
Q 3559 666 3084 287 
Q 2609 -91 1734 -91 
Q 1441 -91 1130 -33 
Q 819 25 488 141 
L 488 750 
Q 750 597 1062 519 
Q 1375 441 1716 441 
Q 2309 441 2620 675 
Q 2931 909 2931 1356 
Q 2931 1769 2642 2001 
Q 2353 2234 1838 2234 
L 1294 2234 
L 1294 2753 
L 1863 2753 
Q 2328 2753 2575 2939 
Q 2822 3125 2822 3475 
Q 2822 3834 2567 4026 
Q 2313 4219 1838 4219 
Q 1578 4219 1281 4162 
Q 984 4106 628 3988 
L 628 4550 
Q 988 4650 1302 4700 
Q 1616 4750 1894 4750 
Q 2613 4750 3031 4423 
Q 3450 4097 3450 3541 
Q 3450 3153 3228 2886 
Q 3006 2619 2597 2516 
z
" id="DejaVuSans-33" transform="scale(0.015625)"/>
       </defs>
       <use xlink:href="#DejaVuSans-30"/>
       <use x="63.623047" xlink:href="#DejaVuSans-2e"/>
       <use x="95.410156" xlink:href="#DejaVuSans-33"/>
      </g>
     </g>
    </g>
    <g id="ytick_5">
     <g id="line2d_10">
      <g>
       <use style="stroke:#000000;stroke-width:0.8;" x="57.6" xlink:href="#m4e9714a876" y="165.410386"/>
      </g>
     </g>
     <g id="text_10">
      <!-- 0.4 -->
      <g transform="translate(34.696875 169.209605)scale(0.1 -0.1)">
       <defs>
        <path d="M 2419 4116 
L 825 1625 
L 2419 1625 
L 2419 4116 
z
M 2253 4666 
L 3047 4666 
L 3047 1625 
L 3713 1625 
L 3713 1100 
L 3047 1100 
L 3047 0 
L 2419 0 
L 2419 1100 
L 313 1100 
L 313 1709 
L 2253 4666 
z
" id="DejaVuSans-34" transform="scale(0.015625)"/>
       </defs>
       <use xlink:href="#DejaVuSans-30"/>
       <use x="63.623047" xlink:href="#DejaVuSans-2e"/>
       <use x="95.410156" xlink:href="#DejaVuSans-34"/>
      </g>
     </g>
    </g>
    <g id="ytick_6">
     <g id="line2d_11">
      <g>
       <use style="stroke:#000000;stroke-width:0.8;" x="57.6" xlink:href="#m4e9714a876" y="129.866983"/>
      </g>
     </g>
     <g id="text_11">
      <!-- 0.5 -->
      <g transform="translate(34.696875 133.666202)scale(0.1 -0.1)">
       <defs>
        <path d="M 691 4666 
L 3169 4666 
L 3169 4134 
L 1269 4134 
L 1269 2991 
Q 1406 3038 1543 3061 
Q 1681 3084 1819 3084 
Q 2600 3084 3056 2656 
Q 3513 2228 3513 1497 
Q 3513 744 3044 326 
Q 2575 -91 1722 -91 
Q 1428 -91 1123 -41 
Q 819 9 494 109 
L 494 744 
Q 775 591 1075 516 
Q 1375 441 1709 441 
Q 2250 441 2565 725 
Q 2881 1009 2881 1497 
Q 2881 1984 2565 2268 
Q 2250 2553 1709 2553 
Q 1456 2553 1204 2497 
Q 953 2441 691 2322 
L 691 4666 
z
" id="DejaVuSans-35" transform="scale(0.015625)"/>
       </defs>
       <use xlink:href="#DejaVuSans-30"/>
       <use x="63.623047" xlink:href="#DejaVuSans-2e"/>
       <use x="95.410156" xlink:href="#DejaVuSans-35"/>
      </g>
     </g>
    </g>
    <g id="ytick_7">
     <g id="line2d_12">
      <g>
       <use style="stroke:#000000;stroke-width:0.8;" x="57.6" xlink:href="#m4e9714a876" y="94.323579"/>
      </g>
     </g>
     <g id="text_12">
      <!-- 0.6 -->
      <g transform="translate(34.696875 98.122798)scale(0.1 -0.1)">
       <defs>
        <path d="M 2113 2584 
Q 1688 2584 1439 2293 
Q 1191 2003 1191 1497 
Q 1191 994 1439 701 
Q 1688 409 2113 409 
Q 2538 409 2786 701 
Q 3034 994 3034 1497 
Q 3034 2003 2786 2293 
Q 2538 2584 2113 2584 
z
M 3366 4563 
L 3366 3988 
Q 3128 4100 2886 4159 
Q 2644 4219 2406 4219 
Q 1781 4219 1451 3797 
Q 1122 3375 1075 2522 
Q 1259 2794 1537 2939 
Q 1816 3084 2150 3084 
Q 2853 3084 3261 2657 
Q 3669 2231 3669 1497 
Q 3669 778 3244 343 
Q 2819 -91 2113 -91 
Q 1303 -91 875 529 
Q 447 1150 447 2328 
Q 447 3434 972 4092 
Q 1497 4750 2381 4750 
Q 2619 4750 2861 4703 
Q 3103 4656 3366 4563 
z
" id="DejaVuSans-36" transform="scale(0.015625)"/>
       </defs>
       <use xlink:href="#DejaVuSans-30"/>
       <use x="63.623047" xlink:href="#DejaVuSans-2e"/>
       <use x="95.410156" xlink:href="#DejaVuSans-36"/>
      </g>
     </g>
    </g>
    <g id="ytick_8">
     <g id="line2d_13">
      <g>
       <use style="stroke:#000000;stroke-width:0.8;" x="57.6" xlink:href="#m4e9714a876" y="58.780176"/>
      </g>
     </g>
     <g id="text_13">
      <!-- 0.7 -->
      <g transform="translate(34.696875 62.579395)scale(0.1 -0.1)">
       <defs>
        <path d="M 525 4666 
L 3525 4666 
L 3525 4397 
L 1831 0 
L 1172 0 
L 2766 4134 
L 525 4134 
L 525 4666 
z
" id="DejaVuSans-37" transform="scale(0.015625)"/>
       </defs>
       <use xlink:href="#DejaVuSans-30"/>
       <use x="63.623047" xlink:href="#DejaVuSans-2e"/>
       <use x="95.410156" xlink:href="#DejaVuSans-37"/>
      </g>
     </g>
    </g>
    <g id="text_14">
     <!-- Probability -->
     <g transform="translate(28.617187 200.956906)rotate(-90)scale(0.1 -0.1)">
      <defs>
       <path d="M 1259 4147 
L 1259 2394 
L 2053 2394 
Q 2494 2394 2734 2622 
Q 2975 2850 2975 3272 
Q 2975 3691 2734 3919 
Q 2494 4147 2053 4147 
L 1259 4147 
z
M 628 4666 
L 2053 4666 
Q 2838 4666 3239 4311 
Q 3641 3956 3641 3272 
Q 3641 2581 3239 2228 
Q 2838 1875 2053 1875 
L 1259 1875 
L 1259 0 
L 628 0 
L 628 4666 
z
" id="DejaVuSans-50" transform="scale(0.015625)"/>
       <path d="M 2631 2963 
Q 2534 3019 2420 3045 
Q 2306 3072 2169 3072 
Q 1681 3072 1420 2755 
Q 1159 2438 1159 1844 
L 1159 0 
L 581 0 
L 581 3500 
L 1159 3500 
L 1159 2956 
Q 1341 3275 1631 3429 
Q 1922 3584 2338 3584 
Q 2397 3584 2469 3576 
Q 2541 3569 2628 3553 
L 2631 2963 
z
" id="DejaVuSans-72" transform="scale(0.015625)"/>
       <path d="M 1959 3097 
Q 1497 3097 1228 2736 
Q 959 2375 959 1747 
Q 959 1119 1226 758 
Q 1494 397 1959 397 
Q 2419 397 2687 759 
Q 2956 1122 2956 1747 
Q 2956 2369 2687 2733 
Q 2419 3097 1959 3097 
z
M 1959 3584 
Q 2709 3584 3137 3096 
Q 3566 2609 3566 1747 
Q 3566 888 3137 398 
Q 2709 -91 1959 -91 
Q 1206 -91 779 398 
Q 353 888 353 1747 
Q 353 2609 779 3096 
Q 1206 3584 1959 3584 
z
" id="DejaVuSans-6f" transform="scale(0.015625)"/>
       <path d="M 3116 1747 
Q 3116 2381 2855 2742 
Q 2594 3103 2138 3103 
Q 1681 3103 1420 2742 
Q 1159 2381 1159 1747 
Q 1159 1113 1420 752 
Q 1681 391 2138 391 
Q 2594 391 2855 752 
Q 3116 1113 3116 1747 
z
M 1159 2969 
Q 1341 3281 1617 3432 
Q 1894 3584 2278 3584 
Q 2916 3584 3314 3078 
Q 3713 2572 3713 1747 
Q 3713 922 3314 415 
Q 2916 -91 2278 -91 
Q 1894 -91 1617 61 
Q 1341 213 1159 525 
L 1159 0 
L 581 0 
L 581 4863 
L 1159 4863 
L 1159 2969 
z
" id="DejaVuSans-62" transform="scale(0.015625)"/>
       <path d="M 2194 1759 
Q 1497 1759 1228 1600 
Q 959 1441 959 1056 
Q 959 750 1161 570 
Q 1363 391 1709 391 
Q 2188 391 2477 730 
Q 2766 1069 2766 1631 
L 2766 1759 
L 2194 1759 
z
M 3341 1997 
L 3341 0 
L 2766 0 
L 2766 531 
Q 2569 213 2275 61 
Q 1981 -91 1556 -91 
Q 1019 -91 701 211 
Q 384 513 384 1019 
Q 384 1609 779 1909 
Q 1175 2209 1959 2209 
L 2766 2209 
L 2766 2266 
Q 2766 2663 2505 2880 
Q 2244 3097 1772 3097 
Q 1472 3097 1187 3025 
Q 903 2953 641 2809 
L 641 3341 
Q 956 3463 1253 3523 
Q 1550 3584 1831 3584 
Q 2591 3584 2966 3190 
Q 3341 2797 3341 1997 
z
" id="DejaVuSans-61" transform="scale(0.015625)"/>
       <path d="M 603 3500 
L 1178 3500 
L 1178 0 
L 603 0 
L 603 3500 
z
M 603 4863 
L 1178 4863 
L 1178 4134 
L 603 4134 
L 603 4863 
z
" id="DejaVuSans-69" transform="scale(0.015625)"/>
       <path d="M 603 4863 
L 1178 4863 
L 1178 0 
L 603 0 
L 603 4863 
z
" id="DejaVuSans-6c" transform="scale(0.015625)"/>
       <path d="M 1172 4494 
L 1172 3500 
L 2356 3500 
L 2356 3053 
L 1172 3053 
L 1172 1153 
Q 1172 725 1289 603 
Q 1406 481 1766 481 
L 2356 481 
L 2356 0 
L 1766 0 
Q 1100 0 847 248 
Q 594 497 594 1153 
L 594 3053 
L 172 3053 
L 172 3500 
L 594 3500 
L 594 4494 
L 1172 4494 
z
" id="DejaVuSans-74" transform="scale(0.015625)"/>
       <path d="M 2059 -325 
Q 1816 -950 1584 -1140 
Q 1353 -1331 966 -1331 
L 506 -1331 
L 506 -850 
L 844 -850 
Q 1081 -850 1212 -737 
Q 1344 -625 1503 -206 
L 1606 56 
L 191 3500 
L 800 3500 
L 1894 763 
L 2988 3500 
L 3597 3500 
L 2059 -325 
z
" id="DejaVuSans-79" transform="scale(0.015625)"/>
      </defs>
      <use xlink:href="#DejaVuSans-50"/>
      <use x="58.552734" xlink:href="#DejaVuSans-72"/>
      <use x="97.416016" xlink:href="#DejaVuSans-6f"/>
      <use x="158.597656" xlink:href="#DejaVuSans-62"/>
      <use x="222.074219" xlink:href="#DejaVuSans-61"/>
      <use x="283.353516" xlink:href="#DejaVuSans-62"/>
      <use x="346.830078" xlink:href="#DejaVuSans-69"/>
      <use x="374.613281" xlink:href="#DejaVuSans-6c"/>
      <use x="402.396484" xlink:href="#DejaVuSans-69"/>
      <use x="430.179688" xlink:href="#DejaVuSans-74"/>
      <use x="469.388672" xlink:href="#DejaVuSans-79"/>
     </g>
    </g>
   </g>
   <g id="patch_103">
    <path d="M 57.6 307.584 
L 57.6 41.472 
" style="fill:none;stroke:#000000;stroke-linecap:square;stroke-linejoin:miter;stroke-width:0.8;"/>
   </g>
   <g id="patch_104">
    <path d="M 414.72 307.584 
L 414.72 41.472 
" style="fill:none;stroke:#000000;stroke-linecap:square;stroke-linejoin:miter;stroke-width:0.8;"/>
   </g>
   <g id="patch_105">
    <path d="M 57.6 307.584 
L 414.72 307.584 
" style="fill:none;stroke:#000000;stroke-linecap:square;stroke-linejoin:miter;stroke-width:0.8;"/>
   </g>
   <g id="patch_106">
    <path d="M 57.6 41.472 
L 414.72 41.472 
" style="fill:none;stroke:#000000;stroke-linecap:square;stroke-linejoin:miter;stroke-width:0.8;"/>
   </g>
  </g>
 </g>
 <defs>
  <clipPath id="p0b421a5d37">
   <rect height="266.112" width="357.12" x="57.6" y="41.472"/>
  </clipPath>
 </defs>
</svg>
