<?xml version="1.0" encoding="utf-8" standalone="no"?>
<!DOCTYPE svg PUBLIC "-//W3C//DTD SVG 1.1//EN"
  "http://www.w3.org/Graphics/SVG/1.1/DTD/svg11.dtd">
<svg height="345.6pt" version="1.1" viewBox="0 0 460.8 345.6" width="460.8pt" xmlns="http://www.w3.org/2000/svg" xmlns:xlink="http://www.w3.org/1999/xlink">
 <metadata>
  <rdf:RDF xmlns:cc="http://creativecommons.org/ns#" xmlns:dc="http://purl.org/dc/elements/1.1/" xmlns:rdf="http://www.w3.org/1999/02/22-rdf-syntax-ns#">
   <cc:Work>
    <dc:type rdf:resource="http://purl.org/dc/dcmitype/StillImage"/>
    <dc:date>2021-04-25T16:23:03.613959</dc:date>
    <dc:format>image/svg+xml</dc:format>
    <dc:creator>
     <cc:Agent>
      <dc:title>Matplotlib v3.4.1, https://matplotlib.org/</dc:title>
     </cc:Agent>
    </dc:creator>
   </cc:Work>
  </rdf:RDF>
 </metadata>
 <defs>
  <style type="text/css">*{stroke-linecap:butt;stroke-linejoin:round;}</style>
 </defs>
 <g id="figure_1">
  <g id="patch_1">
   <path d="M 0 345.6 
L 460.8 345.6 
L 460.8 0 
L 0 0 
z
" style="fill:#ffffff;"/>
  </g>
  <g id="axes_1">
   <g id="patch_2">
    <path d="M 57.6 307.584 
L 414.72 307.584 
L 414.72 41.472 
L 57.6 41.472 
z
" style="fill:#ffffff;"/>
   </g>
   <g id="patch_3">
    <path clip-path="url(#pcb76b45be6)" d="M 73.832727 307.584 
L 80.325818 307.584 
L 80.325818 306.330338 
L 73.832727 306.330338 
z
" style="fill:#1f77b4;fill-opacity:0.75;stroke:#000000;stroke-linejoin:miter;stroke-width:0.649309;"/>
   </g>
   <g id="patch_4">
    <path clip-path="url(#pcb76b45be6)" d="M 80.325818 307.584 
L 86.818909 307.584 
L 86.818909 306.546954 
L 80.325818 306.546954 
z
" style="fill:#1f77b4;fill-opacity:0.75;stroke:#000000;stroke-linejoin:miter;stroke-width:0.649309;"/>
   </g>
   <g id="patch_5">
    <path clip-path="url(#pcb76b45be6)" d="M 86.818909 307.584 
L 93.312 307.584 
L 93.312 306.663385 
L 86.818909 306.663385 
z
" style="fill:#1f77b4;fill-opacity:0.75;stroke:#000000;stroke-linejoin:miter;stroke-width:0.649309;"/>
   </g>
   <g id="patch_6">
    <path clip-path="url(#pcb76b45be6)" d="M 93.312 307.584 
L 99.805091 307.584 
L 99.805091 306.528 
L 93.312 306.528 
z
" style="fill:#1f77b4;fill-opacity:0.75;stroke:#000000;stroke-linejoin:miter;stroke-width:0.649309;"/>
   </g>
   <g id="patch_7">
    <path clip-path="url(#pcb76b45be6)" d="M 99.805091 307.584 
L 106.298182 307.584 
L 106.298182 305.585723 
L 99.805091 305.585723 
z
" style="fill:#1f77b4;fill-opacity:0.75;stroke:#000000;stroke-linejoin:miter;stroke-width:0.649309;"/>
   </g>
   <g id="patch_8">
    <path clip-path="url(#pcb76b45be6)" d="M 106.298182 307.584 
L 112.791273 307.584 
L 112.791273 305.829415 
L 106.298182 305.829415 
z
" style="fill:#1f77b4;fill-opacity:0.75;stroke:#000000;stroke-linejoin:miter;stroke-width:0.649309;"/>
   </g>
   <g id="patch_9">
    <path clip-path="url(#pcb76b45be6)" d="M 112.791273 307.584 
L 119.284364 307.584 
L 119.284364 305.512615 
L 112.791273 305.512615 
z
" style="fill:#1f77b4;fill-opacity:0.75;stroke:#000000;stroke-linejoin:miter;stroke-width:0.649309;"/>
   </g>
   <g id="patch_10">
    <path clip-path="url(#pcb76b45be6)" d="M 119.284364 307.584 
L 125.777455 307.584 
L 125.777455 305.339323 
L 119.284364 305.339323 
z
" style="fill:#1f77b4;fill-opacity:0.75;stroke:#000000;stroke-linejoin:miter;stroke-width:0.649309;"/>
   </g>
   <g id="patch_11">
    <path clip-path="url(#pcb76b45be6)" d="M 125.777455 307.584 
L 132.270545 307.584 
L 132.270545 304.841108 
L 125.777455 304.841108 
z
" style="fill:#1f77b4;fill-opacity:0.75;stroke:#000000;stroke-linejoin:miter;stroke-width:0.649309;"/>
   </g>
   <g id="patch_12">
    <path clip-path="url(#pcb76b45be6)" d="M 132.270545 307.584 
L 138.763636 307.584 
L 138.763636 302.019692 
L 132.270545 302.019692 
z
" style="fill:#1f77b4;fill-opacity:0.75;stroke:#000000;stroke-linejoin:miter;stroke-width:0.649309;"/>
   </g>
   <g id="patch_13">
    <path clip-path="url(#pcb76b45be6)" d="M 138.763636 307.584 
L 145.256727 307.584 
L 145.256727 304.8384 
L 138.763636 304.8384 
z
" style="fill:#1f77b4;fill-opacity:0.75;stroke:#000000;stroke-linejoin:miter;stroke-width:0.649309;"/>
   </g>
   <g id="patch_14">
    <path clip-path="url(#pcb76b45be6)" d="M 145.256727 307.584 
L 151.749818 307.584 
L 151.749818 305.726523 
L 145.256727 305.726523 
z
" style="fill:#1f77b4;fill-opacity:0.75;stroke:#000000;stroke-linejoin:miter;stroke-width:0.649309;"/>
   </g>
   <g id="patch_15">
    <path clip-path="url(#pcb76b45be6)" d="M 151.749818 307.584 
L 158.242909 307.584 
L 158.242909 304.551385 
L 151.749818 304.551385 
z
" style="fill:#1f77b4;fill-opacity:0.75;stroke:#000000;stroke-linejoin:miter;stroke-width:0.649309;"/>
   </g>
   <g id="patch_16">
    <path clip-path="url(#pcb76b45be6)" d="M 158.242909 307.584 
L 164.736 307.584 
L 164.736 304.397046 
L 158.242909 304.397046 
z
" style="fill:#1f77b4;fill-opacity:0.75;stroke:#000000;stroke-linejoin:miter;stroke-width:0.649309;"/>
   </g>
   <g id="patch_17">
    <path clip-path="url(#pcb76b45be6)" d="M 164.736 307.584 
L 171.229091 307.584 
L 171.229091 305.076677 
L 164.736 305.076677 
z
" style="fill:#1f77b4;fill-opacity:0.75;stroke:#000000;stroke-linejoin:miter;stroke-width:0.649309;"/>
   </g>
   <g id="patch_18">
    <path clip-path="url(#pcb76b45be6)" d="M 171.229091 307.584 
L 177.722182 307.584 
L 177.722182 305.989169 
L 171.229091 305.989169 
z
" style="fill:#1f77b4;fill-opacity:0.75;stroke:#000000;stroke-linejoin:miter;stroke-width:0.649309;"/>
   </g>
   <g id="patch_19">
    <path clip-path="url(#pcb76b45be6)" d="M 177.722182 307.584 
L 184.215273 307.584 
L 184.215273 306.097477 
L 177.722182 306.097477 
z
" style="fill:#1f77b4;fill-opacity:0.75;stroke:#000000;stroke-linejoin:miter;stroke-width:0.649309;"/>
   </g>
   <g id="patch_20">
    <path clip-path="url(#pcb76b45be6)" d="M 184.215273 307.584 
L 190.708364 307.584 
L 190.708364 306.877292 
L 184.215273 306.877292 
z
" style="fill:#1f77b4;fill-opacity:0.75;stroke:#000000;stroke-linejoin:miter;stroke-width:0.649309;"/>
   </g>
   <g id="patch_21">
    <path clip-path="url(#pcb76b45be6)" d="M 190.708364 307.584 
L 197.201455 307.584 
L 197.201455 305.455754 
L 190.708364 305.455754 
z
" style="fill:#1f77b4;fill-opacity:0.75;stroke:#000000;stroke-linejoin:miter;stroke-width:0.649309;"/>
   </g>
   <g id="patch_22">
    <path clip-path="url(#pcb76b45be6)" d="M 197.201455 307.584 
L 203.694545 307.584 
L 203.694545 300.730831 
L 197.201455 300.730831 
z
" style="fill:#1f77b4;fill-opacity:0.75;stroke:#000000;stroke-linejoin:miter;stroke-width:0.649309;"/>
   </g>
   <g id="patch_23">
    <path clip-path="url(#pcb76b45be6)" d="M 203.694545 307.584 
L 210.187636 307.584 
L 210.187636 294.963446 
L 203.694545 294.963446 
z
" style="fill:#1f77b4;fill-opacity:0.75;stroke:#000000;stroke-linejoin:miter;stroke-width:0.649309;"/>
   </g>
   <g id="patch_24">
    <path clip-path="url(#pcb76b45be6)" d="M 210.187636 307.584 
L 216.680727 307.584 
L 216.680727 290.227692 
L 210.187636 290.227692 
z
" style="fill:#1f77b4;fill-opacity:0.75;stroke:#000000;stroke-linejoin:miter;stroke-width:0.649309;"/>
   </g>
   <g id="patch_25">
    <path clip-path="url(#pcb76b45be6)" d="M 216.680727 307.584 
L 223.173818 307.584 
L 223.173818 297.078154 
L 216.680727 297.078154 
z
" style="fill:#1f77b4;fill-opacity:0.75;stroke:#000000;stroke-linejoin:miter;stroke-width:0.649309;"/>
   </g>
   <g id="patch_26">
    <path clip-path="url(#pcb76b45be6)" d="M 223.173818 307.584 
L 229.666909 307.584 
L 229.666909 268.528246 
L 223.173818 268.528246 
z
" style="fill:#1f77b4;fill-opacity:0.75;stroke:#000000;stroke-linejoin:miter;stroke-width:0.649309;"/>
   </g>
   <g id="patch_27">
    <path clip-path="url(#pcb76b45be6)" d="M 229.666909 307.584 
L 236.16 307.584 
L 236.16 144.900431 
L 229.666909 144.900431 
z
" style="fill:#1f77b4;fill-opacity:0.75;stroke:#000000;stroke-linejoin:miter;stroke-width:0.649309;"/>
   </g>
   <g id="patch_28">
    <path clip-path="url(#pcb76b45be6)" d="M 236.16 307.584 
L 242.653091 307.584 
L 242.653091 54.144 
L 236.16 54.144 
z
" style="fill:#1f77b4;fill-opacity:0.75;stroke:#000000;stroke-linejoin:miter;stroke-width:0.649309;"/>
   </g>
   <g id="patch_29">
    <path clip-path="url(#pcb76b45be6)" d="M 242.653091 307.584 
L 249.146182 307.584 
L 249.146182 296.888615 
L 242.653091 296.888615 
z
" style="fill:#1f77b4;fill-opacity:0.75;stroke:#000000;stroke-linejoin:miter;stroke-width:0.649309;"/>
   </g>
   <g id="patch_30">
    <path clip-path="url(#pcb76b45be6)" d="M 249.146182 307.584 
L 255.639273 307.584 
L 255.639273 302.964677 
L 249.146182 302.964677 
z
" style="fill:#1f77b4;fill-opacity:0.75;stroke:#000000;stroke-linejoin:miter;stroke-width:0.649309;"/>
   </g>
   <g id="patch_31">
    <path clip-path="url(#pcb76b45be6)" d="M 255.639273 307.584 
L 262.132364 307.584 
L 262.132364 298.488862 
L 255.639273 298.488862 
z
" style="fill:#1f77b4;fill-opacity:0.75;stroke:#000000;stroke-linejoin:miter;stroke-width:0.649309;"/>
   </g>
   <g id="patch_32">
    <path clip-path="url(#pcb76b45be6)" d="M 262.132364 307.584 
L 268.625455 307.584 
L 268.625455 296.160246 
L 262.132364 296.160246 
z
" style="fill:#1f77b4;fill-opacity:0.75;stroke:#000000;stroke-linejoin:miter;stroke-width:0.649309;"/>
   </g>
   <g id="patch_33">
    <path clip-path="url(#pcb76b45be6)" d="M 268.625455 307.584 
L 275.118545 307.584 
L 275.118545 294.359631 
L 268.625455 294.359631 
z
" style="fill:#1f77b4;fill-opacity:0.75;stroke:#000000;stroke-linejoin:miter;stroke-width:0.649309;"/>
   </g>
   <g id="patch_34">
    <path clip-path="url(#pcb76b45be6)" d="M 275.118545 307.584 
L 281.611636 307.584 
L 281.611636 301.3888 
L 275.118545 301.3888 
z
" style="fill:#1f77b4;fill-opacity:0.75;stroke:#000000;stroke-linejoin:miter;stroke-width:0.649309;"/>
   </g>
   <g id="patch_35">
    <path clip-path="url(#pcb76b45be6)" d="M 281.611636 307.584 
L 288.104727 307.584 
L 288.104727 304.0288 
L 281.611636 304.0288 
z
" style="fill:#1f77b4;fill-opacity:0.75;stroke:#000000;stroke-linejoin:miter;stroke-width:0.649309;"/>
   </g>
   <g id="patch_36">
    <path clip-path="url(#pcb76b45be6)" d="M 288.104727 307.584 
L 294.597818 307.584 
L 294.597818 303.714708 
L 288.104727 303.714708 
z
" style="fill:#1f77b4;fill-opacity:0.75;stroke:#000000;stroke-linejoin:miter;stroke-width:0.649309;"/>
   </g>
   <g id="patch_37">
    <path clip-path="url(#pcb76b45be6)" d="M 294.597818 307.584 
L 301.090909 307.584 
L 301.090909 297.912123 
L 294.597818 297.912123 
z
" style="fill:#1f77b4;fill-opacity:0.75;stroke:#000000;stroke-linejoin:miter;stroke-width:0.649309;"/>
   </g>
   <g id="patch_38">
    <path clip-path="url(#pcb76b45be6)" d="M 301.090909 307.584 
L 307.584 307.584 
L 307.584 302.934892 
L 301.090909 302.934892 
z
" style="fill:#1f77b4;fill-opacity:0.75;stroke:#000000;stroke-linejoin:miter;stroke-width:0.649309;"/>
   </g>
   <g id="patch_39">
    <path clip-path="url(#pcb76b45be6)" d="M 307.584 307.584 
L 314.077091 307.584 
L 314.077091 304.995446 
L 307.584 304.995446 
z
" style="fill:#1f77b4;fill-opacity:0.75;stroke:#000000;stroke-linejoin:miter;stroke-width:0.649309;"/>
   </g>
   <g id="patch_40">
    <path clip-path="url(#pcb76b45be6)" d="M 314.077091 307.584 
L 320.570182 307.584 
L 320.570182 304.012554 
L 314.077091 304.012554 
z
" style="fill:#1f77b4;fill-opacity:0.75;stroke:#000000;stroke-linejoin:miter;stroke-width:0.649309;"/>
   </g>
   <g id="patch_41">
    <path clip-path="url(#pcb76b45be6)" d="M 320.570182 307.584 
L 327.063273 307.584 
L 327.063273 300.365292 
L 320.570182 300.365292 
z
" style="fill:#1f77b4;fill-opacity:0.75;stroke:#000000;stroke-linejoin:miter;stroke-width:0.649309;"/>
   </g>
   <g id="patch_42">
    <path clip-path="url(#pcb76b45be6)" d="M 327.063273 307.584 
L 333.556364 307.584 
L 333.556364 302.910523 
L 327.063273 302.910523 
z
" style="fill:#1f77b4;fill-opacity:0.75;stroke:#000000;stroke-linejoin:miter;stroke-width:0.649309;"/>
   </g>
   <g id="patch_43">
    <path clip-path="url(#pcb76b45be6)" d="M 333.556364 307.584 
L 340.049455 307.584 
L 340.049455 305.805046 
L 333.556364 305.805046 
z
" style="fill:#1f77b4;fill-opacity:0.75;stroke:#000000;stroke-linejoin:miter;stroke-width:0.649309;"/>
   </g>
   <g id="patch_44">
    <path clip-path="url(#pcb76b45be6)" d="M 340.049455 307.584 
L 346.542545 307.584 
L 346.542545 306.208492 
L 340.049455 306.208492 
z
" style="fill:#1f77b4;fill-opacity:0.75;stroke:#000000;stroke-linejoin:miter;stroke-width:0.649309;"/>
   </g>
   <g id="patch_45">
    <path clip-path="url(#pcb76b45be6)" d="M 346.542545 307.584 
L 353.035636 307.584 
L 353.035636 306.384492 
L 346.542545 306.384492 
z
" style="fill:#1f77b4;fill-opacity:0.75;stroke:#000000;stroke-linejoin:miter;stroke-width:0.649309;"/>
   </g>
   <g id="patch_46">
    <path clip-path="url(#pcb76b45be6)" d="M 353.035636 307.584 
L 359.528727 307.584 
L 359.528727 305.805046 
L 353.035636 305.805046 
z
" style="fill:#1f77b4;fill-opacity:0.75;stroke:#000000;stroke-linejoin:miter;stroke-width:0.649309;"/>
   </g>
   <g id="patch_47">
    <path clip-path="url(#pcb76b45be6)" d="M 359.528727 307.584 
L 366.021818 307.584 
L 366.021818 305.851077 
L 359.528727 305.851077 
z
" style="fill:#1f77b4;fill-opacity:0.75;stroke:#000000;stroke-linejoin:miter;stroke-width:0.649309;"/>
   </g>
   <g id="patch_48">
    <path clip-path="url(#pcb76b45be6)" d="M 366.021818 307.584 
L 372.514909 307.584 
L 372.514909 305.626338 
L 366.021818 305.626338 
z
" style="fill:#1f77b4;fill-opacity:0.75;stroke:#000000;stroke-linejoin:miter;stroke-width:0.649309;"/>
   </g>
   <g id="patch_49">
    <path clip-path="url(#pcb76b45be6)" d="M 372.514909 307.584 
L 379.008 307.584 
L 379.008 306.054154 
L 372.514909 306.054154 
z
" style="fill:#1f77b4;fill-opacity:0.75;stroke:#000000;stroke-linejoin:miter;stroke-width:0.649309;"/>
   </g>
   <g id="patch_50">
    <path clip-path="url(#pcb76b45be6)" d="M 379.008 307.584 
L 385.501091 307.584 
L 385.501091 306.755446 
L 379.008 306.755446 
z
" style="fill:#1f77b4;fill-opacity:0.75;stroke:#000000;stroke-linejoin:miter;stroke-width:0.649309;"/>
   </g>
   <g id="patch_51">
    <path clip-path="url(#pcb76b45be6)" d="M 385.501091 307.584 
L 391.994182 307.584 
L 391.994182 307.110154 
L 385.501091 307.110154 
z
" style="fill:#1f77b4;fill-opacity:0.75;stroke:#000000;stroke-linejoin:miter;stroke-width:0.649309;"/>
   </g>
   <g id="patch_52">
    <path clip-path="url(#pcb76b45be6)" d="M 391.994182 307.584 
L 398.487273 307.584 
L 398.487273 307.286154 
L 391.994182 307.286154 
z
" style="fill:#1f77b4;fill-opacity:0.75;stroke:#000000;stroke-linejoin:miter;stroke-width:0.649309;"/>
   </g>
   <g id="matplotlib.axis_1">
    <g id="xtick_1">
     <g id="line2d_1">
      <defs>
       <path d="M 0 0 
L 0 3.5 
" id="m7c43efb6ec" style="stroke:#000000;stroke-width:0.8;"/>
      </defs>
      <g>
       <use style="stroke:#000000;stroke-width:0.8;" x="106.298182" xlink:href="#m7c43efb6ec" y="307.584"/>
      </g>
     </g>
     <g id="text_1">
      <!-- −20 -->
      <g transform="translate(95.745838 322.182437)scale(0.1 -0.1)">
       <defs>
        <path d="M 678 2272 
L 4684 2272 
L 4684 1741 
L 678 1741 
L 678 2272 
z
" id="DejaVuSans-2212" transform="scale(0.015625)"/>
        <path d="M 1228 531 
L 3431 531 
L 3431 0 
L 469 0 
L 469 531 
Q 828 903 1448 1529 
Q 2069 2156 2228 2338 
Q 2531 2678 2651 2914 
Q 2772 3150 2772 3378 
Q 2772 3750 2511 3984 
Q 2250 4219 1831 4219 
Q 1534 4219 1204 4116 
Q 875 4013 500 3803 
L 500 4441 
Q 881 4594 1212 4672 
Q 1544 4750 1819 4750 
Q 2544 4750 2975 4387 
Q 3406 4025 3406 3419 
Q 3406 3131 3298 2873 
Q 3191 2616 2906 2266 
Q 2828 2175 2409 1742 
Q 1991 1309 1228 531 
z
" id="DejaVuSans-32" transform="scale(0.015625)"/>
        <path d="M 2034 4250 
Q 1547 4250 1301 3770 
Q 1056 3291 1056 2328 
Q 1056 1369 1301 889 
Q 1547 409 2034 409 
Q 2525 409 2770 889 
Q 3016 1369 3016 2328 
Q 3016 3291 2770 3770 
Q 2525 4250 2034 4250 
z
M 2034 4750 
Q 2819 4750 3233 4129 
Q 3647 3509 3647 2328 
Q 3647 1150 3233 529 
Q 2819 -91 2034 -91 
Q 1250 -91 836 529 
Q 422 1150 422 2328 
Q 422 3509 836 4129 
Q 1250 4750 2034 4750 
z
" id="DejaVuSans-30" transform="scale(0.015625)"/>
       </defs>
       <use xlink:href="#DejaVuSans-2212"/>
       <use x="83.789062" xlink:href="#DejaVuSans-32"/>
       <use x="147.412109" xlink:href="#DejaVuSans-30"/>
      </g>
     </g>
    </g>
    <g id="xtick_2">
     <g id="line2d_2">
      <g>
       <use style="stroke:#000000;stroke-width:0.8;" x="171.229091" xlink:href="#m7c43efb6ec" y="307.584"/>
      </g>
     </g>
     <g id="text_2">
      <!-- −10 -->
      <g transform="translate(160.676747 322.182437)scale(0.1 -0.1)">
       <defs>
        <path d="M 794 531 
L 1825 531 
L 1825 4091 
L 703 3866 
L 703 4441 
L 1819 4666 
L 2450 4666 
L 2450 531 
L 3481 531 
L 3481 0 
L 794 0 
L 794 531 
z
" id="DejaVuSans-31" transform="scale(0.015625)"/>
       </defs>
       <use xlink:href="#DejaVuSans-2212"/>
       <use x="83.789062" xlink:href="#DejaVuSans-31"/>
       <use x="147.412109" xlink:href="#DejaVuSans-30"/>
      </g>
     </g>
    </g>
    <g id="xtick_3">
     <g id="line2d_3">
      <g>
       <use style="stroke:#000000;stroke-width:0.8;" x="236.16" xlink:href="#m7c43efb6ec" y="307.584"/>
      </g>
     </g>
     <g id="text_3">
      <!-- 0 -->
      <g transform="translate(232.97875 322.182437)scale(0.1 -0.1)">
       <use xlink:href="#DejaVuSans-30"/>
      </g>
     </g>
    </g>
    <g id="xtick_4">
     <g id="line2d_4">
      <g>
       <use style="stroke:#000000;stroke-width:0.8;" x="301.090909" xlink:href="#m7c43efb6ec" y="307.584"/>
      </g>
     </g>
     <g id="text_4">
      <!-- 10 -->
      <g transform="translate(294.728409 322.182437)scale(0.1 -0.1)">
       <use xlink:href="#DejaVuSans-31"/>
       <use x="63.623047" xlink:href="#DejaVuSans-30"/>
      </g>
     </g>
    </g>
    <g id="xtick_5">
     <g id="line2d_5">
      <g>
       <use style="stroke:#000000;stroke-width:0.8;" x="366.021818" xlink:href="#m7c43efb6ec" y="307.584"/>
      </g>
     </g>
     <g id="text_5">
      <!-- 20 -->
      <g transform="translate(359.659318 322.182437)scale(0.1 -0.1)">
       <use xlink:href="#DejaVuSans-32"/>
       <use x="63.623047" xlink:href="#DejaVuSans-30"/>
      </g>
     </g>
    </g>
   </g>
   <g id="matplotlib.axis_2">
    <g id="ytick_1">
     <g id="line2d_6">
      <defs>
       <path d="M 0 0 
L -3.5 0 
" id="m2c09343445" style="stroke:#000000;stroke-width:0.8;"/>
      </defs>
      <g>
       <use style="stroke:#000000;stroke-width:0.8;" x="57.6" xlink:href="#m2c09343445" y="307.584"/>
      </g>
     </g>
     <g id="text_6">
      <!-- 0 -->
      <g transform="translate(44.2375 311.383219)scale(0.1 -0.1)">
       <use xlink:href="#DejaVuSans-30"/>
      </g>
     </g>
    </g>
    <g id="ytick_2">
     <g id="line2d_7">
      <g>
       <use style="stroke:#000000;stroke-width:0.8;" x="57.6" xlink:href="#m2c09343445" y="253.430154"/>
      </g>
     </g>
     <g id="text_7">
      <!-- 20000 -->
      <g transform="translate(18.7875 257.229373)scale(0.1 -0.1)">
       <use xlink:href="#DejaVuSans-32"/>
       <use x="63.623047" xlink:href="#DejaVuSans-30"/>
       <use x="127.246094" xlink:href="#DejaVuSans-30"/>
       <use x="190.869141" xlink:href="#DejaVuSans-30"/>
       <use x="254.492188" xlink:href="#DejaVuSans-30"/>
      </g>
     </g>
    </g>
    <g id="ytick_3">
     <g id="line2d_8">
      <g>
       <use style="stroke:#000000;stroke-width:0.8;" x="57.6" xlink:href="#m2c09343445" y="199.276308"/>
      </g>
     </g>
     <g id="text_8">
      <!-- 40000 -->
      <g transform="translate(18.7875 203.075526)scale(0.1 -0.1)">
       <defs>
        <path d="M 2419 4116 
L 825 1625 
L 2419 1625 
L 2419 4116 
z
M 2253 4666 
L 3047 4666 
L 3047 1625 
L 3713 1625 
L 3713 1100 
L 3047 1100 
L 3047 0 
L 2419 0 
L 2419 1100 
L 313 1100 
L 313 1709 
L 2253 4666 
z
" id="DejaVuSans-34" transform="scale(0.015625)"/>
       </defs>
       <use xlink:href="#DejaVuSans-34"/>
       <use x="63.623047" xlink:href="#DejaVuSans-30"/>
       <use x="127.246094" xlink:href="#DejaVuSans-30"/>
       <use x="190.869141" xlink:href="#DejaVuSans-30"/>
       <use x="254.492188" xlink:href="#DejaVuSans-30"/>
      </g>
     </g>
    </g>
    <g id="ytick_4">
     <g id="line2d_9">
      <g>
       <use style="stroke:#000000;stroke-width:0.8;" x="57.6" xlink:href="#m2c09343445" y="145.122462"/>
      </g>
     </g>
     <g id="text_9">
      <!-- 60000 -->
      <g transform="translate(18.7875 148.92168)scale(0.1 -0.1)">
       <defs>
        <path d="M 2113 2584 
Q 1688 2584 1439 2293 
Q 1191 2003 1191 1497 
Q 1191 994 1439 701 
Q 1688 409 2113 409 
Q 2538 409 2786 701 
Q 3034 994 3034 1497 
Q 3034 2003 2786 2293 
Q 2538 2584 2113 2584 
z
M 3366 4563 
L 3366 3988 
Q 3128 4100 2886 4159 
Q 2644 4219 2406 4219 
Q 1781 4219 1451 3797 
Q 1122 3375 1075 2522 
Q 1259 2794 1537 2939 
Q 1816 3084 2150 3084 
Q 2853 3084 3261 2657 
Q 3669 2231 3669 1497 
Q 3669 778 3244 343 
Q 2819 -91 2113 -91 
Q 1303 -91 875 529 
Q 447 1150 447 2328 
Q 447 3434 972 4092 
Q 1497 4750 2381 4750 
Q 2619 4750 2861 4703 
Q 3103 4656 3366 4563 
z
" id="DejaVuSans-36" transform="scale(0.015625)"/>
       </defs>
       <use xlink:href="#DejaVuSans-36"/>
       <use x="63.623047" xlink:href="#DejaVuSans-30"/>
       <use x="127.246094" xlink:href="#DejaVuSans-30"/>
       <use x="190.869141" xlink:href="#DejaVuSans-30"/>
       <use x="254.492188" xlink:href="#DejaVuSans-30"/>
      </g>
     </g>
    </g>
    <g id="ytick_5">
     <g id="line2d_10">
      <g>
       <use style="stroke:#000000;stroke-width:0.8;" x="57.6" xlink:href="#m2c09343445" y="90.968615"/>
      </g>
     </g>
     <g id="text_10">
      <!-- 80000 -->
      <g transform="translate(18.7875 94.767834)scale(0.1 -0.1)">
       <defs>
        <path d="M 2034 2216 
Q 1584 2216 1326 1975 
Q 1069 1734 1069 1313 
Q 1069 891 1326 650 
Q 1584 409 2034 409 
Q 2484 409 2743 651 
Q 3003 894 3003 1313 
Q 3003 1734 2745 1975 
Q 2488 2216 2034 2216 
z
M 1403 2484 
Q 997 2584 770 2862 
Q 544 3141 544 3541 
Q 544 4100 942 4425 
Q 1341 4750 2034 4750 
Q 2731 4750 3128 4425 
Q 3525 4100 3525 3541 
Q 3525 3141 3298 2862 
Q 3072 2584 2669 2484 
Q 3125 2378 3379 2068 
Q 3634 1759 3634 1313 
Q 3634 634 3220 271 
Q 2806 -91 2034 -91 
Q 1263 -91 848 271 
Q 434 634 434 1313 
Q 434 1759 690 2068 
Q 947 2378 1403 2484 
z
M 1172 3481 
Q 1172 3119 1398 2916 
Q 1625 2713 2034 2713 
Q 2441 2713 2670 2916 
Q 2900 3119 2900 3481 
Q 2900 3844 2670 4047 
Q 2441 4250 2034 4250 
Q 1625 4250 1398 4047 
Q 1172 3844 1172 3481 
z
" id="DejaVuSans-38" transform="scale(0.015625)"/>
       </defs>
       <use xlink:href="#DejaVuSans-38"/>
       <use x="63.623047" xlink:href="#DejaVuSans-30"/>
       <use x="127.246094" xlink:href="#DejaVuSans-30"/>
       <use x="190.869141" xlink:href="#DejaVuSans-30"/>
       <use x="254.492188" xlink:href="#DejaVuSans-30"/>
      </g>
     </g>
    </g>
    <g id="text_11">
     <!-- Count -->
     <g transform="translate(12.707812 189.376437)rotate(-90)scale(0.1 -0.1)">
      <defs>
       <path d="M 4122 4306 
L 4122 3641 
Q 3803 3938 3442 4084 
Q 3081 4231 2675 4231 
Q 1875 4231 1450 3742 
Q 1025 3253 1025 2328 
Q 1025 1406 1450 917 
Q 1875 428 2675 428 
Q 3081 428 3442 575 
Q 3803 722 4122 1019 
L 4122 359 
Q 3791 134 3420 21 
Q 3050 -91 2638 -91 
Q 1578 -91 968 557 
Q 359 1206 359 2328 
Q 359 3453 968 4101 
Q 1578 4750 2638 4750 
Q 3056 4750 3426 4639 
Q 3797 4528 4122 4306 
z
" id="DejaVuSans-43" transform="scale(0.015625)"/>
       <path d="M 1959 3097 
Q 1497 3097 1228 2736 
Q 959 2375 959 1747 
Q 959 1119 1226 758 
Q 1494 397 1959 397 
Q 2419 397 2687 759 
Q 2956 1122 2956 1747 
Q 2956 2369 2687 2733 
Q 2419 3097 1959 3097 
z
M 1959 3584 
Q 2709 3584 3137 3096 
Q 3566 2609 3566 1747 
Q 3566 888 3137 398 
Q 2709 -91 1959 -91 
Q 1206 -91 779 398 
Q 353 888 353 1747 
Q 353 2609 779 3096 
Q 1206 3584 1959 3584 
z
" id="DejaVuSans-6f" transform="scale(0.015625)"/>
       <path d="M 544 1381 
L 544 3500 
L 1119 3500 
L 1119 1403 
Q 1119 906 1312 657 
Q 1506 409 1894 409 
Q 2359 409 2629 706 
Q 2900 1003 2900 1516 
L 2900 3500 
L 3475 3500 
L 3475 0 
L 2900 0 
L 2900 538 
Q 2691 219 2414 64 
Q 2138 -91 1772 -91 
Q 1169 -91 856 284 
Q 544 659 544 1381 
z
M 1991 3584 
L 1991 3584 
z
" id="DejaVuSans-75" transform="scale(0.015625)"/>
       <path d="M 3513 2113 
L 3513 0 
L 2938 0 
L 2938 2094 
Q 2938 2591 2744 2837 
Q 2550 3084 2163 3084 
Q 1697 3084 1428 2787 
Q 1159 2491 1159 1978 
L 1159 0 
L 581 0 
L 581 3500 
L 1159 3500 
L 1159 2956 
Q 1366 3272 1645 3428 
Q 1925 3584 2291 3584 
Q 2894 3584 3203 3211 
Q 3513 2838 3513 2113 
z
" id="DejaVuSans-6e" transform="scale(0.015625)"/>
       <path d="M 1172 4494 
L 1172 3500 
L 2356 3500 
L 2356 3053 
L 1172 3053 
L 1172 1153 
Q 1172 725 1289 603 
Q 1406 481 1766 481 
L 2356 481 
L 2356 0 
L 1766 0 
Q 1100 0 847 248 
Q 594 497 594 1153 
L 594 3053 
L 172 3053 
L 172 3500 
L 594 3500 
L 594 4494 
L 1172 4494 
z
" id="DejaVuSans-74" transform="scale(0.015625)"/>
      </defs>
      <use xlink:href="#DejaVuSans-43"/>
      <use x="69.824219" xlink:href="#DejaVuSans-6f"/>
      <use x="131.005859" xlink:href="#DejaVuSans-75"/>
      <use x="194.384766" xlink:href="#DejaVuSans-6e"/>
      <use x="257.763672" xlink:href="#DejaVuSans-74"/>
     </g>
    </g>
   </g>
   <g id="patch_53">
    <path d="M 57.6 307.584 
L 57.6 41.472 
" style="fill:none;stroke:#000000;stroke-linecap:square;stroke-linejoin:miter;stroke-width:0.8;"/>
   </g>
   <g id="patch_54">
    <path d="M 414.72 307.584 
L 414.72 41.472 
" style="fill:none;stroke:#000000;stroke-linecap:square;stroke-linejoin:miter;stroke-width:0.8;"/>
   </g>
   <g id="patch_55">
    <path d="M 57.6 307.584 
L 414.72 307.584 
" style="fill:none;stroke:#000000;stroke-linecap:square;stroke-linejoin:miter;stroke-width:0.8;"/>
   </g>
   <g id="patch_56">
    <path d="M 57.6 41.472 
L 414.72 41.472 
" style="fill:none;stroke:#000000;stroke-linecap:square;stroke-linejoin:miter;stroke-width:0.8;"/>
   </g>
  </g>
 </g>
 <defs>
  <clipPath id="pcb76b45be6">
   <rect height="266.112" width="357.12" x="57.6" y="41.472"/>
  </clipPath>
 </defs>
</svg>
